# xmcd
#
# Track frame offsets:
#	150
#	15073
#	28128
#	43221
#	58108
#	75156
#	89648
#	100373
#	112956
#	122986
#	134851
#	147654
#	157702
#	169722
#	181085
#	194562
#	207047
#	215344
#	231394
#
# Disc length: 3372
#
# Revision: 2
# Processed by: cddbd v1.5.1PL0 Copyright (c) Steve Scherf et al.
# Submitted via: audiograbber 1.82.00
# Normalized: r1:DSETVAR1,TDELIM( - )
#
DISCID=0b0d2a13
DTITLE=Various Artist - Broken Hearted Blues
DYEAR=1900
DGENRE=Blues
TTITLE0=Gone Astray - Percy Mayfield
TTITLE1=My Reward - Percy Mayfield
TTITLE2=I'd Rather Be Hurt - Peppermint Harris
TTITLE3=I'll Learn to Love Again - Peppermint Harris
TTITLE4=No Do Right - T-Bone Walker
TTITLE5=Why Won't My Baby Treat Me Right - T-Bone Walker
TTITLE6=Working on Me - Ivory Joe Hunter
TTITLE7=The Cold Gray Light of Dawn - Ivory Joe Hunter
TTITLE8=Midnight Bells are Running - T-Bone Walker
TTITLE9=Emty Feeling - T-Bone Walker
TTITLE10=Dream I Had Last Night - Mabel Franklin
TTITLE11=Horny old Buzzard - Big Martha
TTITLE12=Your Magic Touch - Big Martha
TTITLE13=I can tell I am loosing You - Jeanette Williams
TTITLE14=I'm Stepping Up in Class - Kilowatts and Kathy
TTITLE15=Say the Wrong Thing - Kilowatts and Kathy
TTITLE16=Ain't Nobody Gonna Take My Man - Levenia Lewis
TTITLE17=I Feel Like Breaking Up - Lou Ann Barton
TTITLE18=Take My Love - Joey Long
EXTD=
EXTT0=
EXTT1=
EXTT2=
EXTT3=
EXTT4=
EXTT5=
EXTT6=
EXTT7=
EXTT8=
EXTT9=
EXTT10=
EXTT11=
EXTT12=
EXTT13=
EXTT14=
EXTT15=
EXTT16=
EXTT17=
EXTT18=
PLAYORDER=
